<svg xmlns="http://www.w3.org/2000/svg" viewBox="0 0 20 20"><defs><style>.a{fill:#fff;}</style></defs><title>attachments</title><path class="a" d="M9.229,15.507a3.172,3.172,0,0,1-4.271.277,2.72,2.72,0,0,1-.295-4.005l7.119-7.67a1.923,1.923,0,0,1,2.588-.168,1.648,1.648,0,0,1,.178,2.426L9.14,12.193a.66.66,0,0,1-.887.058.565.565,0,0,1-.061-.832l4.189-4.514-1.222-1L6.97,10.421A2.021,2.021,0,0,0,7.189,13.4a2.357,2.357,0,0,0,3.173-.206l5.409-5.826a3.105,3.105,0,0,0-.337-4.57,3.621,3.621,0,0,0-4.874.316l-7.12,7.67a4.178,4.178,0,0,0,.454,6.15,4.87,4.87,0,0,0,6.557-.426L17.7,8.7l-1.222-1Z"/></svg>