<?xml version="1.0" encoding="utf-8"?>
<!-- Generator: Adobe Illustrator 24.0.1, SVG Export Plug-In . SVG Version: 6.00 Build 0)  -->
<svg version="1.2" baseProfile="tiny" id="icon" xmlns="http://www.w3.org/2000/svg" xmlns:xlink="http://www.w3.org/1999/xlink"
	 x="0px" y="0px" viewBox="0 0 24 24" xml:space="preserve">
<path id="menu03" fill="#FFFFFF" d="M9.439,6h5.121C14.803,6,15,5.804,15,5.561c0,0,0,0,0,0V0.44C15.001,0.197,14.804,0,14.562,0
	c0,0-0.001,0-0.001,0H9.439C9.197,0,9,0.196,9,0.439c0,0,0,0,0,0v5.12C8.998,5.801,9.193,5.998,9.435,6C9.436,6,9.438,6,9.439,6z"/>
<path id="menu02" fill="#FFFFFF" d="M9.439,15h5.122C14.803,15,15,14.803,15,14.561l0,0V9.439C15,9.197,14.803,9,14.561,9l0,0H9.439
	C9.197,9,9,9.197,9,9.439v0v5.122C9,14.803,9.195,14.999,9.437,15C9.438,15,9.439,15,9.439,15z"/>
<path id="menu01" fill="#FFFFFF" d="M9.439,24h5.122C14.803,24,15,23.803,15,23.561l0,0v-5.122C15,18.197,14.803,18,14.561,18l0,0
	H9.439C9.197,18,9,18.197,9,18.439l0,0v5.122C9,23.803,9.195,23.999,9.437,24C9.438,24,9.439,24,9.439,24z"/>
</svg>
