<?xml version="1.0" encoding="utf-8"?>
<svg xmlns="http://www.w3.org/2000/svg" width="20" height="20" viewBox="0 0 20 20">
    <defs>
        <style>.cls-1{fill:#fff;}</style>
    </defs>
    <path class="cls-1" d="M10,2a8,8,0,1,1-8,8,8,8,0,0,1,8-8m0-1a9,9,0,1,0,9,9,9,9,0,0,0-9-9ZM6.92,13.29a3.23,3.23,0,0,1-2.29-.91,3.11,3.11,0,0,1-1-2.37,3.08,3.08,0,0,1,1-2.38,3.48,3.48,0,0,1,2.44-.92,3.32,3.32,0,0,1,2.44,1l-.79,1A2.55,2.55,0,0,0,7.08,8a2.11,2.11,0,0,0-1.46.56A1.85,1.85,0,0,0,5,10a2.09,2.09,0,0,0,2.12,2.11,2.34,2.34,0,0,0,1.69-.82l.79.86A3.67,3.67,0,0,1,6.92,13.29Zm6.73,0a3.23,3.23,0,0,1-2.29-.91,3.11,3.11,0,0,1-1-2.37,3.08,3.08,0,0,1,1-2.38,3.48,3.48,0,0,1,2.44-.92,3.32,3.32,0,0,1,2.44,1l-.79,1A2.55,2.55,0,0,0,13.81,8a2.11,2.11,0,0,0-1.46.56A1.85,1.85,0,0,0,11.74,10a2.09,2.09,0,0,0,2.12,2.11,2.34,2.34,0,0,0,1.69-.82l.79.86A3.67,3.67,0,0,1,13.65,13.29Z"/>
</svg>