<?xml version="1.0" encoding="utf-8"?>
<svg xmlns="http://www.w3.org/2000/svg" width="20" height="20" viewBox="0 0 20 20">
    <defs>
        <style>.cls-1{fill:#fff;}</style>
    </defs>
    <path class="cls-1" d="M10.5,10h5.67a.25.25,0,0,0,.18-.43l-2-2a.25.25,0,0,1,0-.35l4.58-4.58a.5.5,0,0,0,0-.71l-.87-.87a.5.5,0,0,0-.71,0L12.78,5.65a.25.25,0,0,1-.35,0l-2-2a.25.25,0,0,0-.43.18V9.5A.5.5,0,0,0,10.5,10ZM10,10m-.42-.08H3.91a.25.25,0,0,0-.18.43l2,2a.25.25,0,0,1,0,.35L1.15,17.27a.5.5,0,0,0,0,.71l.87.87a.5.5,0,0,0,.71,0L7.3,14.27a.25.25,0,0,1,.35,0l2,2a.25.25,0,0,0,.43-.18V10.42A.5.5,0,0,0,9.58,9.92Zm.5,0"/>
</svg>