<?xml version="1.0" encoding="utf-8"?>
<!-- Generator: Adobe Illustrator 21.0.2, SVG Export Plug-In . SVG Version: 6.00 Build 0)  -->
<svg version="1.1" id="Quote" xmlns="http://www.w3.org/2000/svg" xmlns:xlink="http://www.w3.org/1999/xlink" x="0px" y="0px"
	 viewBox="0 0 28 22" style="enable-background:new 0 0 28 22;" xml:space="preserve">
<style type="text/css">
	.st0{fill:#D4D4D4;}
</style>
<path class="st0" d="M10.2,22H0v-7.3c0-2.9,0.3-5.3,0.8-7c0.5-1.7,1.5-3.2,2.9-4.6C5.1,1.8,6.8,0.8,9,0l2,4.2C9,4.9,7.5,5.8,6.6,7
	c-0.9,1.2-1.3,2.8-1.4,4.8h4.9V22z M27.2,22H17v-7.3c0-3,0.3-5.3,0.8-7c0.5-1.7,1.5-3.2,2.9-4.6C22.1,1.8,23.9,0.8,26,0l2,4.2
	c-2,0.7-3.5,1.6-4.4,2.8c-0.9,1.2-1.3,2.8-1.4,4.8h4.9V22z"/>
</svg>
