<?xml version="1.0" encoding="utf-8"?>
<svg xmlns="http://www.w3.org/2000/svg" width="20" height="20" viewBox="0 0 20 20">
    <defs>
        <style>.cls-1{fill:#fff;}</style>
    </defs>
    <path class="cls-1" d="M1.5,19H7.17a.25.25,0,0,0,.18-.43l-2-2a.25.25,0,0,1,0-.35l4.58-4.58a.5.5,0,0,0,0-.71l-.87-.87a.5.5,0,0,0-.71,0L3.78,14.65a.25.25,0,0,1-.35,0l-2-2a.25.25,0,0,0-.43.18V18.5A.5.5,0,0,0,1.5,19Z"/>
    <path class="cls-1" d="M18.5,1H12.83a.25.25,0,0,0-.18.43l2,2a.25.25,0,0,1,0,.35L10.06,8.35a.5.5,0,0,0,0,.71l.87.87a.5.5,0,0,0,.71,0l4.57-4.58a.25.25,0,0,1,.35,0l2,2A.25.25,0,0,0,19,7.18V1.5A.5.5,0,0,0,18.5,1Z"/>
</svg>