<?xml version="1.0" encoding="utf-8"?>
<!-- Generator: Adobe Illustrator 24.0.1, SVG Export Plug-In . SVG Version: 6.00 Build 0)  -->
<svg version="1.2" baseProfile="tiny" id="icon" xmlns="http://www.w3.org/2000/svg" xmlns:xlink="http://www.w3.org/1999/xlink"
	 x="0px" y="0px" viewBox="0 0 16 16" xml:space="preserve">
<path id="home03" fill="#41484B" d="M15.614,6.324L8.616,0.599c-0.171-0.141-0.39-0.213-0.612-0.2
	c-0.222-0.013-0.44,0.059-0.612,0.2l-7.01,5.725c-0.177,0.146-0.286,0.359-0.3,0.588c-0.012,0.227,0.071,0.45,0.23,0.613
	l0.842,0.871c0.325,0.33,0.848,0.359,1.208,0.067l5.639-4.605l5.638,4.609c0.36,0.292,0.882,0.263,1.208-0.067l0.842-0.871
	c0.313-0.32,0.307-0.834-0.014-1.147c-0.019-0.019-0.039-0.036-0.06-0.053V6.324z M14.275,7.842c-0.039,0.029-0.093,0.029-0.132,0
	L8.252,3.03c-0.146-0.117-0.354-0.117-0.5,0L1.859,7.847c-0.039,0.03-0.093,0.03-0.132,0L0.882,6.972V6.941l6.999-5.725
	C7.902,1.2,7.928,1.192,7.955,1.196c0.023,0.002,0.046,0.002,0.069,0C8.05,1.193,8.076,1.2,8.098,1.216l6.999,5.725l0.005,0.031
	L14.275,7.842z"/>
<path id="home02" fill="#41484B" d="M9.103,5.442c-0.306-0.25-0.695-0.374-1.089-0.346C7.62,5.068,7.23,5.192,6.925,5.442
	L2.356,9.258c-0.09,0.076-0.143,0.188-0.143,0.306V15.6c0,0.221,0.179,0.4,0.4,0.4h3.799c0.221,0,0.4-0.179,0.4-0.4v-5.392h2.407
	v5.391c0,0.221,0.179,0.4,0.4,0.4h3.799c0.221,0,0.4-0.179,0.4-0.4V9.563c0-0.118-0.052-0.23-0.143-0.306L9.103,5.442z
	 M13.019,15.201h-3.006V9.808c0-0.221-0.179-0.4-0.4-0.4H6.413c-0.221,0-0.4,0.179-0.4,0.4v5.391H3.009v-5.45l4.424-3.694
	c0.155-0.123,0.352-0.182,0.549-0.164c0.021,0.002,0.043,0.002,0.064,0C8.242,5.872,8.437,5.93,8.592,6.052l4.427,3.699V15.201z"/>
<path id="home01" fill="#41484B" d="M3.123,0c-0.221,0-0.4,0.179-0.4,0.4c0,0,0,0,0,0v2.799c0,0.154,0.088,0.293,0.227,0.36
	c0.053,0.025,0.112,0.038,0.171,0.038c0.092,0,0.181-0.032,0.252-0.09L5.43,1.829C5.522,1.753,5.576,1.64,5.576,1.521V0.4
	c0-0.221-0.179-0.4-0.4-0.4H3.123z M4.776,1.332L3.521,2.358V0.8h1.256V1.332z"/>
</svg>
