<?xml version="1.0" encoding="utf-8"?>
<!-- Generator: Adobe Illustrator 20.1.0, SVG Export Plug-In . SVG Version: 6.00 Build 0)  -->
<svg version="1.1" id="Vrstva_1" xmlns="http://www.w3.org/2000/svg" xmlns:xlink="http://www.w3.org/1999/xlink" x="0px" y="0px"
	 viewBox="0 0 16 13" style="enable-background:new 0 0 16 13;" xml:space="preserve">
<style type="text/css">
	.st0{fill:#76B948;}
</style>
<g>
	<path class="st0" d="M15.3,7.7c0,0.1-0.1,0.1-0.2,0.1c0,0,0,0,0,0c-0.1,0-0.1,0-0.2-0.1L8,2L1.1,7.7C1.1,7.7,1,7.8,0.9,7.8
		c-0.1,0-0.2,0-0.2-0.1L0.1,6.9C0,6.8,0,6.6,0.1,6.5l7.1-5.9c0.4-0.3,1.1-0.3,1.5,0l2.4,2V0.6c0-0.2,0.1-0.3,0.3-0.3h1.9
		c0.2,0,0.3,0.1,0.3,0.3v4l2.2,1.8c0.1,0.1,0.1,0.3,0,0.4L15.3,7.7z M13.7,12.4c0,0.3-0.3,0.6-0.6,0.6H9.3V9.2H6.7V13H2.9
		c-0.3,0-0.6-0.3-0.6-0.6V7.6c0,0,0,0,0-0.1L8,2.8l5.7,4.7c0,0,0,0,0,0.1V12.4z"/>
</g>
</svg>
