<?xml version="1.0" encoding="utf-8"?>
<!-- Generator: Adobe Illustrator 21.0.2, SVG Export Plug-In . SVG Version: 6.00 Build 0)  -->
<svg version="1.1" id="Vrstva_1" xmlns="http://www.w3.org/2000/svg" xmlns:xlink="http://www.w3.org/1999/xlink" x="0px" y="0px"
	 viewBox="0 0 20 20" style="enable-background:new 0 0 20 20;" xml:space="preserve">
<style type="text/css">
	.st0{fill:#FFFFFF;}
	.st1{fill:#AEAEAE;}
</style>
<path class="st0" d="M10,20L10,20C4.5,20,0,15.5,0,10v0C0,4.5,4.5,0,10,0h0c5.5,0,10,4.5,10,10v0C20,15.5,15.5,20,10,20z"/>
<path class="st1" d="M5.3,13.8c-0.1-0.1-0.1-0.3,0-0.5L8.6,10L5.3,6.7c-0.1-0.1-0.1-0.3,0-0.5l0.9-0.9c0.1-0.1,0.3-0.1,0.5,0L10,8.6
	l3.3-3.3c0.1-0.1,0.3-0.1,0.5,0l0.9,0.9c0.1,0.1,0.1,0.3,0,0.5L11.4,10l3.3,3.3c0.1,0.1,0.1,0.3,0,0.5l-0.9,0.9
	c-0.1,0.1-0.3,0.1-0.5,0L10,11.4l-3.3,3.3c-0.1,0.1-0.3,0.1-0.5,0L5.3,13.8z"/>
</svg>
