<?xml version="1.0" encoding="UTF-8" standalone="no"?>
<svg
   xmlns:dc="http://purl.org/dc/elements/1.1/"
   xmlns:cc="http://creativecommons.org/ns#"
   xmlns:rdf="http://www.w3.org/1999/02/22-rdf-syntax-ns#"
   xmlns:svg="http://www.w3.org/2000/svg"
   xmlns="http://www.w3.org/2000/svg"
   width="100%"
   viewBox="0 0 20 20"
   id="svg2"
   version="1.1">
  <metadata
     id="metadata10">
    <rdf:RDF>
      <cc:Work
         rdf:about="">
        <dc:format>image/svg+xml</dc:format>
        <dc:type
           rdf:resource="http://purl.org/dc/dcmitype/StillImage" />
        <dc:title></dc:title>
      </cc:Work>
    </rdf:RDF>
  </metadata>
  <defs
     id="defs8" />
  <path
     style="fill:#aeaeae;fill-opacity:1"
     d="m 17.634676,14.695326 q 0,-0.490541 -0.342759,-0.833927 l -2.546201,-2.550812 q -0.342758,-0.343377 -0.832414,-0.343377 -0.514136,0 -0.881377,0.392429 0.03672,0.03681 0.232586,0.226878 0.195861,0.190084 0.263189,0.263661 0.06733,0.07362 0.183621,0.233008 0.116292,0.15943 0.159137,0.312722 0.04285,0.153293 0.04285,0.337248 0,0.49054 -0.342758,0.833926 -0.342758,0.343369 -0.832412,0.343369 -0.18362,0 -0.336638,-0.04293 -0.153015,-0.04293 -0.312154,-0.159431 -0.159137,-0.116508 -0.232586,-0.183956 -0.07344,-0.06742 -0.263189,-0.263661 -0.189742,-0.196215 -0.226465,-0.233008 -0.403965,0.38017 -0.403965,0.895236 0,0.49054 0.342758,0.833927 l 2.52172,2.538544 q 0.330517,0.331119 0.832411,0.331119 0.489655,0 0.832413,-0.318852 l 1.79948,-1.79048 q 0.342758,-0.343378 0.342758,-0.821651 z M 9.029001,6.0495328 q 0,-0.4905401 -0.3427569,-0.8339174 L 6.1645239,2.6770616 Q 5.8217662,2.3336844 5.3321121,2.3336844 q -0.4774126,0 -0.8324119,0.3311188 L 2.7002194,4.4552751 q -0.342757,0.3433772 -0.342757,0.821659 0,0.4905402 0.342757,0.8339173 l 2.5462032,2.5508122 q 0.3305162,0.3311185 0.8324119,0.3311185 0.5141373,0 0.881378,-0.3801698 Q 6.9234894,8.5758014 6.727626,8.3857342 6.5317647,8.1956492 6.4644376,8.1220722 6.3971068,8.0484502 6.2808172,7.8890649 6.1645239,7.7296347 6.12168,7.5763426 6.0788338,7.4230505 6.0788338,7.2390946 q 0,-0.4905402 0.3427576,-0.8339174 Q 6.7643499,6.0618 7.2540047,6.0618 q 0.1836198,0 0.3366363,0.042931 0.1530173,0.042931 0.3121553,0.1594212 0.1591373,0.1165084 0.2325851,0.1839563 0.073447,0.067412 0.2631899,0.263662 0.1897403,0.1962232 0.2264643,0.2330072 0.4039647,-0.3801702 0.4039647,-0.8952359 z m 10.956015,8.6457932 q 0,1.47162 -1.040515,2.489493 l -1.79948,1.790472 q -1.016033,1.017873 -2.484996,1.017873 -1.481203,0 -2.497236,-1.042399 L 9.6410701,16.412211 q -1.0160337,-1.017864 -1.0160337,-2.489493 0,-1.508413 1.0772392,-2.563079 L 8.6250364,10.280456 q -1.0527563,1.079183 -2.5462019,1.079183 -1.4689625,0 -2.497237,-1.030132 L 1.0353957,7.778695 Q 0.00712187,6.7485544 0.00712187,5.2769341 q 0,-1.4716294 1.04051533,-2.4895026 L 2.8471159,0.99695963 q 1.016033,-1.01787322 2.4849962,-1.01787322 1.481204,0 2.4972363,1.04239889 l 2.5217196,2.5385539 q 1.016033,1.0178732 1.016033,2.4894936 0,1.5084133 -1.07724,2.5630795 l 1.07724,1.0791915 q 1.052757,-1.0791915 2.546201,-1.0791915 1.468964,0 2.497237,1.0301402 l 2.546204,2.5508125 q 1.028273,1.030131 1.028273,2.501761 z"
     id="path4" />
</svg>
