<?xml version="1.0" encoding="utf-8"?>
<svg xmlns="http://www.w3.org/2000/svg" viewBox="0 0 14.4 18"><defs><style>.cls-1{fill:#fff;}</style></defs><title>pdf-icon</title><g id="Vrstva_2" data-name="Vrstva 2"><g id="Vrstva_1-2" data-name="Vrstva 1"><path id="PDF" class="cls-1" d="M13.48,16.06a6.18,6.18,0,0,0,.92-.26v1.06A1.14,1.14,0,0,1,13.26,18H3.69A16.57,16.57,0,0,0,5,16.19h7.39A9.47,9.47,0,0,0,13.48,16.06ZM8.4,5.56A.53.53,0,0,0,8.92,6h3a.78.78,0,0,1,.67.77v4a4.44,4.44,0,0,1,1.72.53l.08,0v-5a1.16,1.16,0,0,0-.29-.76L14,5.53,8.81.34A1.16,1.16,0,0,0,8,0H1.14A1.14,1.14,0,0,0,0,1.14v13.3a9.52,9.52,0,0,1,1.67-1.12l.13-.07V2.05a.26.26,0,0,1,.25-.26H7.63a.78.78,0,0,1,.77.67Zm1.08,7.69a8.07,8.07,0,0,0,3.33,1c.61,0,.77-.21.8-.38l0-.13-.12.06a1,1,0,0,1-.4.07,7,7,0,0,1-2.52-.71l.8,0a3.45,3.45,0,0,1,2.07.39.25.25,0,0,1,.08.19l.13,0a.54.54,0,0,0,0-.55c-.24-.38-1.06-.59-2.3-.59a14.52,14.52,0,0,0-1.64.1A9.48,9.48,0,0,1,8.5,11.9,7.56,7.56,0,0,1,6.42,8.49a16,16,0,0,0,.2-2.63q0-.21,0-.42l-.14,0c0,.16-.06.35-.1.58-.06.38-.13.87-.26,1.46A5.9,5.9,0,0,1,6,4.72a.91.91,0,0,1,.15-.26.9.9,0,0,1,.39.73h.14a1,1,0,0,0-.08-.8.43.43,0,0,0-.35-.14h-.3c-.19,0-.35.16-.42.42a7.92,7.92,0,0,0,.34,3.9,21.78,21.78,0,0,1-1.46,3.69C2.63,15.81,1.34,17.58.44,17.67A5.5,5.5,0,0,1,2.59,15l-.07-.12C.86,15.78.14,16.79,0,17.38a.43.43,0,0,0,0,.35h0l.34.17a.66.66,0,0,0,.3.07h0c.76,0,1.83-1.2,3.21-3.57A25.25,25.25,0,0,1,9.48,13.25Zm-4.57-.61A16.09,16.09,0,0,0,6.19,9.51,7.39,7.39,0,0,0,8.07,12.3a6.94,6.94,0,0,0,.74.55A21,21,0,0,0,4.06,14.2Q4.47,13.49,4.91,12.64Z"/></g></g></svg>