<?xml version="1.0" encoding="UTF-8" standalone="no"?>
<svg
   id="lj"
   viewBox="0 0 20 20"
   version="1.1"
   sodipodi:docname="relink - Copy.svg"
   xmlns:sodipodi="http://sodipodi.sourceforge.net/DTD/sodipodi-0.dtd"
   xmlns="http://www.w3.org/2000/svg"
   xmlns:svg="http://www.w3.org/2000/svg">
  <sodipodi:namedview
     id="namedview21"
     pagecolor="#ffffff"
     bordercolor="#666666"
     borderopacity="1.0"
     showgrid="false"
    />
  <defs
     id="defs4">
    <style
       id="style2">.agj{fill:#aeaeae;}</style>
  </defs>
  <g
     id="g12"
     transform="matrix(-1,0,0,1,19.999,0)">
    <path
       class="agj"
       d="M 4,3.25 C 3.5,2.75 2.75,3.5 3.25,4 L 5.5,6.25 C 6,6.75 6.75,6 6.25,5.5 Z"
       id="path6" />
    <path
       class="agj"
       d="m 4.5,7 h -2 C 2.25,7 2,7.25 2,7.5 2,7.75 2.25,8 2.5,8 h 2 C 4.75,8 5,7.75 5,7.5 5,7.25 4.75,7 4.5,7 Z"
       id="path8" />
    <path
       class="agj"
       d="m 8,4.5 v -2 C 8,2.25 7.75,2 7.5,2 7.25,2 7,2.25 7,2.5 v 2 C 7,4.75 7.25,5 7.5,5 7.75,5 8,4.75 8,4.5 Z"
       id="path10" />
  </g>
  <g
     id="g18"
     transform="matrix(-1,0,0,1,19.999,0)">
    <path
       class="agj"
       d="m 10.465,8.109 c -0.388,0.389 -0.388,1.037 0,1.426 0.926,0.908 0.926,2.387 0,3.295 l -2.48,2.481 c -0.908,0.908 -2.388,0.908 -3.296,0 -0.907,-0.908 -0.907,-2.388 0,-3.295 L 5.874,10.831 C 5.578,10.035 5.467,9.183 5.541,8.331 L 3.264,10.608 C 2.4,11.472 2,12.499 2,13.749 c 0,1.25 0.429,2.171 1.25,3 0.894,0.885 2,1.25 3.25,1.25 1,0 2.091,-0.463 2.891,-1.264 l 2.499,-2.499 c 1.685,-1.685 1.685,-4.425 0,-6.128 -0.388,-0.388 -1.036,-0.388 -1.426,0 z"
       id="path14" />
    <path
       class="agj"
       d="M 10.595,3.277 8.114,5.758 c -1.685,1.685 -1.685,4.425 0,6.128 0.389,0.388 1.019,0.388 1.407,0 0.407,-0.389 0.407,-1.018 0,-1.407 -0.907,-0.926 -0.907,-2.388 0,-3.313 L 12.02,4.685 c 0.907,-0.908 2.388,-0.908 3.295,0 0.908,0.908 0.908,2.388 0,3.295 L 14.13,9.184 c 0.297,0.796 0.408,1.628 0.334,2.48 l 2.258,-2.258 c 0.873,-0.873 1.277,-2.155 1.277,-3.155 0,-1 -0.42,-2.179 -1.25,-3 -0.824,-0.834 -2,-1.25 -3,-1.25 -1,0 -2.286,0.408 -3.155,1.277 z"
       id="path16" />
  </g>
</svg>
