<svg x="0" y="0" width="14" height="13" viewBox="0 0 14 13" version="1.1" xmlns="http://www.w3.org/2000/svg">
    <defs>

        <style type="text/css">
            <![CDATA[

.g1_1{
fill: #7536f0;
}


]]>
        </style>

    </defs>
    <path d="M0,0
L0,13
L14,13
L14,0 Z " fill="#FFFFFF" stroke="none" fill-opacity="0" />
    <path d="M5.7,12.4C5.5,12.4,5.4,12.3,5.3,12.3L1.9,9.7L5,5.6L3.5,4.5C3.3,4.4,3.2,4.1,3.3,3.9C3.3,3.7,3.4,3.5,3.6,3.5L10.8,1.2c0.2,0,0.4,0,0.5,0.1c0.2,0.1,0.3,0.3,0.3,0.5L11.3,9.3c0,0.3,-0.1,0.5,-0.3,0.5c-0.2,0.1,-0.4,0.1,-0.6,0L8.8,8.6L7.4,10.4L6.5,9.7L8.3,7.5C8.5,7.2,8.8,7.2,9.1,7.4l1.1,0.8L10.4,2.5L5,4.2L6.1,5C6.4,5.2,6.4,5.6,6.2,5.8L3.4,9.4l2.6,2c0.3,0.1,0.3,0.5,0.1,0.8C6,12.3,5.8,12.4,5.7,12.4Z" class="g1_1" />

</svg>