<?xml version="1.0" encoding="utf-8"?>
<svg xmlns="http://www.w3.org/2000/svg" width="12" height="12" viewBox="0 0 12 12">
    <defs>
        <style>.cls-1{fill:#05b9f0;}</style>
    </defs>
    <path class="cls-1" d="M9.56,2a.44.44,0,0,1,.44.44v5a.22.22,0,0,1-.22.22.22.22,0,0,1-.15-.07L7.86,5.83a.22.22,0,0,0-.31,0l-4,4a.44.44,0,0,1-.62,0L2.13,9.1a.44.44,0,0,1,0-.62l4-4a.22.22,0,0,0,0-.31L4.41,2.38A.22.22,0,0,1,4.57,2h5m0-1h-5A1.22,1.22,0,0,0,3.7,3.08l1.2,1.2L1.42,7.77a1.44,1.44,0,0,0,0,2l.77.77a1.44,1.44,0,0,0,2,0L7.7,7.09,8.92,8.31a1.21,1.21,0,0,0,.86.36A1.22,1.22,0,0,0,11,7.44v-5A1.44,1.44,0,0,0,9.56,1Z"/>
</svg>