<?xml version="1.0" encoding="utf-8"?>
<svg id="Vrstva_1" data-name="Vrstva 1" xmlns="http://www.w3.org/2000/svg" viewBox="0 0 20 20"><defs><style>.cls-1{fill:#fff;}</style></defs><title>pause-icon-svg</title><path class="cls-1" d="M6.92,1H4.39A1.7,1.7,0,0,0,2.71,2.68V17.32A1.7,1.7,0,0,0,4.42,19H6.89a1.71,1.71,0,0,0,1.7-1.52v-15A1.7,1.7,0,0,0,6.92,1Z"/><path class="cls-1" d="M15.59,1H13.12a1.71,1.71,0,0,0-1.71,1.62V17.38A1.71,1.71,0,0,0,13.12,19h2.47a1.7,1.7,0,0,0,1.7-1.61V2.52A1.71,1.71,0,0,0,15.59,1Z"/></svg>