<?xml version="1.0" encoding="UTF-8" standalone="no"?>
<svg
   xmlns:dc="http://purl.org/dc/elements/1.1/"
   xmlns:cc="http://creativecommons.org/ns#"
   xmlns:rdf="http://www.w3.org/1999/02/22-rdf-syntax-ns#"
   xmlns:svg="http://www.w3.org/2000/svg"
   xmlns="http://www.w3.org/2000/svg"
   xmlns:sodipodi="http://sodipodi.sourceforge.net/DTD/sodipodi-0.dtd"
   xmlns:inkscape="http://www.inkscape.org/namespaces/inkscape"
   version="1.1"
   id="svg2"
   height="117.29"
   width="759.22583"
   viewBox="0 0 607.38067 93.832001"
   style="isolation:isolate"
   inkscape:version="0.91 r13725"
   sodipodi:docname="evolve_logo_white_RGB.svg">
  <sodipodi:namedview
     pagecolor="#ffffff"
     bordercolor="#666666"
     borderopacity="1"
     objecttolerance="10"
     gridtolerance="10"
     guidetolerance="10"
     inkscape:pageopacity="0"
     inkscape:pageshadow="2"
     inkscape:window-width="1920"
     inkscape:window-height="1017"
     id="namedview23"
     showgrid="false"
     inkscape:zoom="0.45836164"
     inkscape:cx="52.360402"
     inkscape:cy="40.100691"
     inkscape:window-x="-8"
     inkscape:window-y="-8"
     inkscape:window-maximized="1"
     inkscape:current-layer="text4392-6" />
  <metadata
     id="metadata37">
    <rdf:RDF>
      <cc:Work
         rdf:about="">
        <dc:format>image/svg+xml</dc:format>
        <dc:type
           rdf:resource="http://purl.org/dc/dcmitype/StillImage" />
        <dc:title />
      </cc:Work>
    </rdf:RDF>
  </metadata>
  <defs
     id="defs4">
    <clipPath
       id="_clipPath_9o9BoBz5oBT2asBanslsr1TvnaxDxHH1">
      <rect
         y="0"
         x="0"
         id="rect7"
         height="256"
         width="1016" />
    </clipPath>
    <style
       id="style4168">.cls-1{fill:#7536e6;}</style>
  </defs>
  <g
     transform="translate(-36.330031,0.0501102)"
     style="fill:#000000;fill-opacity:0.94117647"
     id="g4396" />
  <g
     style="fill:#ffffff;fill-opacity:1"
     id="g4459">
    <g
       transform="translate(-36.330031,0.0501102)"
       style="font-style:normal;font-variant:normal;font-weight:bold;font-stretch:normal;font-size:8.41209602px;line-height:100%;font-family:Muli;-inkscape-font-specification:'Muli, Bold';text-align:center;letter-spacing:0px;word-spacing:0px;writing-mode:lr-tb;text-anchor:middle;isolation:isolate;fill:#ffffff;fill-opacity:1;stroke:none;stroke-width:1px;stroke-linecap:butt;stroke-linejoin:miter;stroke-opacity:1"
       id="text4392-6">
      <path
         d="m 171.75953,63.597548 q 0,1.589886 -1.13564,2.64981 -1.13563,1.059923 -2.64981,1.059923 -1.66559,0 -2.72552,-1.059923 -0.98421,-1.059924 -0.98421,-2.64981 l 0,-45.65244 q 0,-1.514177 1.05992,-2.574101 1.05993,-1.059924 2.72552,-1.059924 1.51418,0 2.5741,1.059924 1.13564,1.059924 1.13564,2.574101 l 0,45.65244 z"
         style="font-style:normal;font-variant:normal;font-weight:500;font-stretch:normal;font-size:75.70885468px;font-family:'Quicksand Medium';-inkscape-font-specification:'Quicksand Medium, Medium';text-align:start;text-anchor:start;fill:#ffffff;fill-opacity:1"
         id="path4152" />
      <path
         d="m 203.68027,26.727335 q 13.6276,0 13.6276,16.353113 l 0,20.592808 q 0,1.514178 -1.05993,2.574102 -0.98421,1.059923 -2.5741,1.059923 -1.51418,0 -2.5741,-1.059923 -0.98422,-1.059924 -0.98422,-2.574102 l 0,-20.517099 q 0,-4.466823 -2.04413,-7.116632 -2.04414,-2.64981 -6.66238,-2.64981 -3.02836,0 -5.52675,1.362759 -2.42268,1.287051 -3.86115,3.558316 -1.36276,2.195557 -1.36276,4.845367 l 0,20.517099 q 0,1.514178 -1.05992,2.574102 -0.98422,1.059923 -2.57411,1.059923 -1.58988,0 -2.5741,-0.984215 -0.98421,-1.059924 -0.98421,-2.64981 l 0,-32.403389 q 0,-1.514177 0.98421,-2.574101 1.05993,-1.059924 2.5741,-1.059924 1.58989,0 2.57411,1.059924 1.05992,1.059924 1.05992,2.574101 l 0,2.64981 q 1.96843,-3.028355 5.45104,-5.072494 3.55831,-2.119848 7.57088,-2.119848 z"
         style="font-style:normal;font-variant:normal;font-weight:500;font-stretch:normal;font-size:75.70885468px;font-family:'Quicksand Medium';-inkscape-font-specification:'Quicksand Medium, Medium';text-align:start;text-anchor:start;fill:#ffffff;fill-opacity:1"
         id="path4154" />
      <path
         d="m 225.85113,61.099155 q -0.68138,-1.059924 -0.68138,-2.044139 0,-1.514177 1.58989,-2.574101 0.75709,-0.529962 1.7413,-0.529962 1.36276,0 2.4984,1.135633 2.27126,2.574101 4.84536,3.861152 2.64981,1.28705 6.28384,1.28705 2.87693,-0.07571 5.07249,-1.28705 2.19556,-1.287051 2.19556,-4.088278 0,-2.574102 -2.27127,-3.936861 -2.19556,-1.362759 -6.51096,-2.498392 -4.2397,-1.135633 -7.04092,-2.346975 -2.80123,-1.28705 -4.76966,-3.634025 -1.89272,-2.422683 -1.89272,-6.283835 0,-3.406898 1.89272,-5.980999 1.96843,-2.574101 5.1482,-4.012569 3.25548,-1.438469 7.04092,-1.438469 3.63403,0 7.19235,1.36276 3.63402,1.362759 5.90529,4.163987 0.9085,1.059924 0.9085,2.195557 0,1.211341 -1.21134,2.346974 -0.75709,0.68138 -1.89272,0.68138 -1.36276,0 -2.19556,-0.908507 -1.58988,-1.817012 -3.93686,-2.801227 -2.27126,-0.984215 -5.07249,-0.984215 -2.87694,0 -4.92108,1.211341 -1.96843,1.135633 -1.96843,3.936861 0.0757,2.64981 2.27127,3.93686 2.27126,1.287051 6.8895,2.498393 4.01257,1.059923 6.66238,2.271265 2.64981,1.211342 4.46683,3.634025 1.81701,2.346975 1.81701,6.208126 0,3.558316 -2.04414,6.208126 -2.04414,2.574101 -5.37533,4.01257 -3.25548,1.362759 -6.96521,1.362759 -4.76966,0 -8.85794,-1.665595 -4.01257,-1.665595 -6.8138,-5.29962 z"
         style="font-style:normal;font-variant:normal;font-weight:500;font-stretch:normal;font-size:75.70885468px;font-family:'Quicksand Medium';-inkscape-font-specification:'Quicksand Medium, Medium';text-align:start;text-anchor:start;fill:#ffffff;fill-opacity:1"
         id="path4156" />
      <path
         d="m 284.11383,26.954462 q 5.1482,0 9.31219,2.64981 4.16399,2.574101 6.51096,7.26805 2.42268,4.693949 2.42268,10.59924 0,5.90529 -2.42268,10.599239 -2.34697,4.61824 -6.51096,7.26805 -4.16399,2.64981 -9.16077,2.64981 -3.93686,0 -7.34376,-1.741303 -3.4069,-1.741304 -5.52675,-4.239696 l 0,16.807365 q 0,1.514177 -1.05992,2.574101 -0.98422,1.059924 -2.5741,1.059924 -1.51418,0 -2.5741,-1.059924 -0.98422,-0.984215 -0.98422,-2.574101 l 0,-47.620869 q 0,-1.589886 0.98422,-2.64981 0.98421,-1.059924 2.5741,-1.059924 1.58988,0 2.5741,1.059924 1.05992,1.059924 1.05992,2.64981 l 0,2.195557 q 1.81701,-2.64981 5.29962,-4.542532 3.48261,-1.892721 7.41947,-1.892721 z m -0.8328,34.37182 q 3.48261,0 6.28384,-1.817013 2.80122,-1.817012 4.3154,-4.921075 1.58989,-3.179772 1.58989,-7.116632 0,-3.936861 -1.58989,-7.040924 -1.51418,-3.179772 -4.3154,-4.996784 -2.80123,-1.817013 -6.28384,-1.817013 -3.55831,0 -6.35954,1.817013 -2.80123,1.741303 -4.39112,4.921075 -1.51417,3.179772 -1.51417,7.116633 0,3.93686 1.51417,7.116632 1.58989,3.179772 4.39112,4.996784 2.80123,1.741304 6.35954,1.741304 z"
         style="font-style:normal;font-variant:normal;font-weight:500;font-stretch:normal;font-size:75.70885468px;font-family:'Quicksand Medium';-inkscape-font-specification:'Quicksand Medium, Medium';text-align:start;text-anchor:start;fill:#ffffff;fill-opacity:1"
         id="path4158" />
      <path
         d="m 317.44701,63.673256 q 0,1.514178 -1.05992,2.574102 -0.98421,1.059923 -2.5741,1.059923 -1.51418,0 -2.5741,-1.059923 -0.98422,-1.059924 -0.98422,-2.574102 l 0,-32.781934 q 0,-1.514177 0.98422,-2.574101 1.05992,-1.059924 2.5741,-1.059924 1.58989,0 2.5741,1.059924 1.05992,1.059924 1.05992,2.574101 l 0,32.781934 z m -3.63402,-41.412743 q -2.19556,0 -3.17977,-0.757089 -0.90851,-0.832797 -0.90851,-2.574101 l 0,-1.211341 q 0,-1.817013 0.98422,-2.574101 1.05992,-0.757089 3.17977,-0.757089 2.11985,0 3.02835,0.832797 0.98422,0.757089 0.98422,2.498393 l 0,1.211341 q 0,1.817013 -0.98422,2.574101 -0.98421,0.757089 -3.10406,0.757089 z"
         style="font-style:normal;font-variant:normal;font-weight:500;font-stretch:normal;font-size:75.70885468px;font-family:'Quicksand Medium';-inkscape-font-specification:'Quicksand Medium, Medium';text-align:start;text-anchor:start;fill:#ffffff;fill-opacity:1"
         id="path4160" />
      <path
         d="m 347.54603,26.727335 q 1.96843,0 3.4069,1.059924 1.43847,0.984215 1.43847,2.498393 0,1.817012 -0.98422,2.801227 -0.9085,0.908506 -2.27126,0.908506 -0.68138,0 -2.04414,-0.454253 -1.58989,-0.529962 -2.4984,-0.529962 -2.34697,0 -4.61824,1.665595 -2.19555,1.589886 -3.63402,4.466823 -1.36276,2.801227 -1.36276,6.283834 l 0,18.245834 q 0,1.514178 -1.05992,2.574102 -0.98422,1.059923 -2.5741,1.059923 -1.58989,0 -2.57411,-0.984215 -0.98421,-1.059924 -0.98421,-2.64981 l 0,-32.403389 q 0,-1.514177 0.98421,-2.574101 1.05993,-1.059924 2.57411,-1.059924 1.58988,0 2.5741,1.059924 1.05992,1.059924 1.05992,2.574101 l 0,3.861151 q 1.66559,-3.709734 4.99678,-5.980999 3.33119,-2.346975 7.57089,-2.422684 z"
         style="font-style:normal;font-variant:normal;font-weight:500;font-stretch:normal;font-size:75.70885468px;font-family:'Quicksand Medium';-inkscape-font-specification:'Quicksand Medium, Medium';text-align:start;text-anchor:start;fill:#ffffff;fill-opacity:1"
         id="path4162" />
      <path
         d="m 392.18585,45.957384 q -0.0757,1.36276 -1.13563,2.346975 -1.05992,0.908506 -2.49839,0.908506 l -26.64952,0 q 0.52996,5.526747 4.16399,8.857936 3.70973,3.33119 9.00935,3.33119 3.63403,0 5.90529,-1.059924 2.27127,-1.059924 4.01257,-2.725519 1.13563,-0.68138 2.19556,-0.68138 1.28705,0 2.11985,0.908507 0.9085,0.908506 0.9085,2.119848 0,1.589886 -1.51417,2.876936 -2.19556,2.195557 -5.82959,3.709734 -3.63402,1.514177 -7.41946,1.514177 -6.13242,0 -10.82637,-2.574101 -4.61824,-2.574101 -7.19234,-7.192341 -2.49839,-4.61824 -2.49839,-10.447822 0,-6.359544 2.5741,-11.129202 2.64981,-4.845366 6.8895,-7.419468 4.31541,-2.574101 9.23648,-2.574101 4.84537,0 9.08507,2.498393 4.23969,2.498392 6.81379,6.889505 2.5741,4.391114 2.64981,9.842151 z M 373.63718,33.389715 q -4.23969,0 -7.34376,2.422683 -3.10406,2.346974 -4.08827,7.343759 l 22.33411,0 0,-0.605671 q -0.37855,-4.012569 -3.63403,-6.58667 -3.17977,-2.574101 -7.26805,-2.574101 z"
         style="font-style:normal;font-variant:normal;font-weight:500;font-stretch:normal;font-size:75.70885468px;font-family:'Quicksand Medium';-inkscape-font-specification:'Quicksand Medium, Medium';text-align:start;text-anchor:start;fill:#ffffff;fill-opacity:1"
         id="path4164" />
      <path
         d="m 452.42407,60.342067 q 1.58989,0 2.5741,1.059924 1.05993,1.059924 1.05993,2.498392 0,1.514177 -1.05993,2.498392 -0.98421,0.908506 -2.5741,0.908506 l -26.34668,0 q -1.51418,0 -2.5741,-1.059923 -1.05992,-1.059924 -1.05992,-2.574102 l 0,-45.728148 q 0,-1.514177 1.05992,-2.574101 1.05992,-1.059924 2.5741,-1.059924 l 26.34668,0 q 1.58989,0 2.5741,0.984215 1.05993,0.984215 1.05993,2.574101 0,1.514177 -1.05993,2.498393 -0.98421,0.908506 -2.5741,0.908506 l -22.48553,0 0,15.444606 19.07863,0 q 1.58989,0 2.5741,0.984215 1.05993,0.984215 1.05993,2.498393 0,1.589885 -1.05993,2.498392 -0.98421,0.908506 -2.5741,0.908506 l -19.07863,0 0,16.731657 22.48553,0 z"
         style="font-style:normal;font-variant:normal;font-weight:500;font-stretch:normal;font-size:75.70885468px;font-family:'Quicksand Medium';-inkscape-font-specification:'Quicksand Medium, Medium';text-align:start;text-anchor:start;fill:#ffffff;fill-opacity:1"
         id="path4166" />
      <path
         d="m 493.81315,27.257297 q 1.43847,0 2.42269,0.984215 0.98421,0.908507 0.98421,2.195557 0,0.68138 -0.52996,1.892722 l -14.38468,32.706225 q -0.45426,0.984215 -1.28705,1.589886 -0.8328,0.605671 -1.81702,0.681379 -1.21134,0.151418 -2.27126,-0.454253 -0.98422,-0.60567 -1.51418,-1.817012 L 461.03122,32.329791 q -0.37855,-1.135633 -0.37855,-1.892722 0,-1.211341 0.98422,-2.195557 0.98421,-0.984215 2.5741,-0.984215 1.13563,0 2.04414,0.605671 0.90851,0.529962 1.43847,1.665595 l 11.43203,26.573808 11.43204,-26.573808 q 1.05993,-2.271266 3.25548,-2.271266 z"
         style="font-style:normal;font-variant:normal;font-weight:500;font-stretch:normal;font-size:75.70885468px;font-family:'Quicksand Medium';-inkscape-font-specification:'Quicksand Medium, Medium';text-align:start;text-anchor:start;fill:#ffffff;fill-opacity:1"
         id="path4168" />
      <path
         d="m 542.18875,47.471562 q 0,5.90529 -2.64981,10.599239 -2.64981,4.693949 -7.26805,7.343759 -4.54254,2.64981 -10.06928,2.64981 -5.52675,0 -10.14499,-2.64981 -4.54253,-2.64981 -7.19234,-7.343759 -2.64981,-4.693949 -2.64981,-10.599239 0,-5.905291 2.64981,-10.674949 2.64981,-4.769658 7.19234,-7.419468 4.61824,-2.64981 10.14499,-2.64981 5.52674,0 10.06928,2.64981 4.61824,2.64981 7.26805,7.419468 2.64981,4.769658 2.64981,10.674949 z m -7.19235,0 q 0,-4.088279 -1.7413,-7.26805 -1.66559,-3.255481 -4.61824,-4.996785 -2.87694,-1.817012 -6.43525,-1.817012 -3.55832,0 -6.51096,1.817012 -2.87694,1.741304 -4.61824,4.996785 -1.6656,3.179771 -1.6656,7.26805 0,4.012569 1.6656,7.192341 1.7413,3.179772 4.61824,4.996784 2.95264,1.741304 6.51096,1.741304 3.55831,0 6.43525,-1.741304 2.95265,-1.817012 4.61824,-4.996784 1.7413,-3.179772 1.7413,-7.192341 z"
         style="font-style:normal;font-variant:normal;font-weight:500;font-stretch:normal;font-size:75.70885468px;font-family:'Quicksand Medium';-inkscape-font-specification:'Quicksand Medium, Medium';text-align:start;text-anchor:start;fill:#ffffff;fill-opacity:1"
         id="path4170" />
      <path
         d="m 558.27452,63.673256 q 0,1.514178 -1.05992,2.574102 -1.05993,1.059923 -2.5741,1.059923 -1.51418,0 -2.5741,-1.059923 -0.98422,-1.059924 -0.98422,-2.574102 l 0,-48.756502 q 0,-1.514177 1.05992,-2.574101 1.05993,-1.059924 2.57411,-1.059924 1.51417,0 2.49839,1.059924 1.05992,1.059924 1.05992,2.574101 l 0,48.756502 z"
         style="font-style:normal;font-variant:normal;font-weight:500;font-stretch:normal;font-size:75.70885468px;font-family:'Quicksand Medium';-inkscape-font-specification:'Quicksand Medium, Medium';text-align:start;text-anchor:start;fill:#ffffff;fill-opacity:1"
         id="path4172" />
      <path
         d="m 598.06071,27.257297 q 1.43847,0 2.42268,0.984215 0.98422,0.908507 0.98422,2.195557 0,0.68138 -0.52996,1.892722 l -14.38469,32.706225 q -0.45425,0.984215 -1.28705,1.589886 -0.83279,0.605671 -1.81701,0.681379 -1.21134,0.151418 -2.27126,-0.454253 -0.98422,-0.60567 -1.51418,-1.817012 L 565.27878,32.329791 q -0.37855,-1.135633 -0.37855,-1.892722 0,-1.211341 0.98422,-2.195557 0.98421,-0.984215 2.5741,-0.984215 1.13563,0 2.04414,0.605671 0.9085,0.529962 1.43847,1.665595 l 11.43203,26.573808 11.43204,-26.573808 q 1.05992,-2.271266 3.25548,-2.271266 z"
         style="font-style:normal;font-variant:normal;font-weight:500;font-stretch:normal;font-size:75.70885468px;font-family:'Quicksand Medium';-inkscape-font-specification:'Quicksand Medium, Medium';text-align:start;text-anchor:start;fill:#ffffff;fill-opacity:1"
         id="path4174" />
      <path
         d="m 643.71079,45.957384 q -0.0757,1.36276 -1.13564,2.346975 -1.05992,0.908506 -2.49839,0.908506 l -26.64952,0 q 0.52997,5.526747 4.16399,8.857936 3.70974,3.33119 9.00935,3.33119 3.63403,0 5.9053,-1.059924 2.27126,-1.059924 4.01256,-2.725519 1.13564,-0.68138 2.19556,-0.68138 1.28705,0 2.11985,0.908507 0.90851,0.908506 0.90851,2.119848 0,1.589886 -1.51418,2.876936 -2.19556,2.195557 -5.82958,3.709734 -3.63403,1.514177 -7.41947,1.514177 -6.13242,0 -10.82637,-2.574101 -4.61824,-2.574101 -7.19234,-7.192341 -2.49839,-4.61824 -2.49839,-10.447822 0,-6.359544 2.5741,-11.129202 2.64981,-4.845366 6.88951,-7.419468 4.3154,-2.574101 9.23648,-2.574101 4.84536,0 9.08506,2.498393 4.2397,2.498392 6.8138,6.889505 2.5741,4.391114 2.64981,9.842151 z M 625.16212,33.389715 q -4.2397,0 -7.34376,2.422683 -3.10407,2.346974 -4.08828,7.343759 l 22.33411,0 0,-0.605671 q -0.37854,-4.012569 -3.63402,-6.58667 -3.17978,-2.574101 -7.26805,-2.574101 z"
         style="font-style:normal;font-variant:normal;font-weight:500;font-stretch:normal;font-size:75.70885468px;font-family:'Quicksand Medium';-inkscape-font-specification:'Quicksand Medium, Medium';text-align:start;text-anchor:start;fill:#ffffff;fill-opacity:1"
         id="path4176" />
    </g>
    <g
       transform="matrix(0.15686635,0,0,0.15686633,27.395068,3.0817411)"
       id="g4293"
       style="font-style:normal;font-variant:normal;font-weight:normal;font-stretch:normal;font-size:67.06916046px;line-height:1000%;font-family:Quicksand;-inkscape-font-specification:Quicksand;letter-spacing:0px;word-spacing:0px;color-interpolation:auto;fill:#ffffff;fill-opacity:1;stroke:none;stroke-width:1px;stroke-linecap:butt;stroke-linejoin:miter;stroke-miterlimit:10;stroke-dasharray:none;stroke-dashoffset:0;stroke-opacity:1;color-rendering:auto;image-rendering:auto;shape-rendering:auto;text-rendering:auto">
      <g
         id="g24"
         transform="matrix(1.25,0,0,-1.25,35.258357,314.19433)"
         style="fill:#ffffff;fill-opacity:1">
        <path
           d="m 0,0 c 0.02,1.889 -0.696,3.669 -2.01,5.007 -1.315,1.351 -3.081,2.105 -4.972,2.127 l -0.002,0 -81.636,0.848 c -38.182,7.229 -65.591,40.675 -65.177,79.535 0.227,21.412 8.777,41.456 24.082,56.439 15.078,14.756 34.987,22.88 56.043,22.88 l 0.891,-0.005 c 5.026,-0.053 10.179,-0.614 15.348,-1.674 2.103,-0.412 4.25,0.125 5.879,1.482 1.658,1.368 2.593,3.382 2.569,5.539 -0.008,0.346 -0.025,0.706 -0.049,1.125 -0.009,0.137 -0.019,0.236 -0.017,0.344 0.229,21.408 8.78,41.45 24.085,56.428 15.069,14.756 34.977,22.883 56.037,22.883 l 0.894,-0.005 c 21.483,-0.226 41.61,-8.91 56.68,-24.446 0.698,-0.72 1.654,-1.125 2.657,-1.125 l 9.071,0 c 1.44,0 2.749,0.836 3.356,2.141 0.607,1.307 0.4,2.846 -0.528,3.945 -17.766,21.06 -43.675,33.307 -71.103,33.599 l -1.012,0.005 c -24.788,0 -48.2,-9.555 -65.926,-26.908 -16.324,-15.979 -26.248,-37.189 -28.036,-59.845 -3.276,0.381 -6.554,0.593 -9.782,0.629 l -1,0.002 c -24.787,0 -48.202,-9.557 -65.928,-26.91 -17.996,-17.615 -28.055,-41.186 -28.327,-66.374 -0.489,-45.981 31.989,-85.37 77.209,-93.653 0.405,-0.075 0.805,-0.114 1.219,-0.118 l 82.392,-0.877 c 3.869,0 7.052,3.131 7.093,6.982"
           style="fill:#ffffff;fill-opacity:1;fill-rule:nonzero;stroke:none"
           id="path26" />
      </g>
      <g
         id="g28"
         transform="matrix(1.25,0,0,-1.25,450.81123,488.75971)"
         style="fill:#ffffff;fill-opacity:1">
        <path
           d="m 0,0 c -6.143,6.148 -14.32,9.535 -23.019,9.535 l -12.824,0 -3.021,0 -51.011,0 c -8.689,0 -16.85,-3.381 -22.977,-9.518 -5.954,-5.945 -9.25,-13.819 -9.445,-22.218 -19.502,30.042 -16.116,70.722 10.205,97.048 14.627,14.624 34.103,22.677 54.839,22.677 20.74,0 40.215,-8.053 54.839,-22.677 C 12.236,60.196 20.305,40.721 20.305,20.007 20.305,5.739 16.394,-7.896 9.224,-19.816 8.491,-12.341 5.38,-5.377 0,0 m -108.112,-38.471 0,15.513 c 0,4.876 1.895,9.456 5.34,12.895 3.441,3.446 8.022,5.342 12.897,5.342 l 51.011,0 3.021,0 12.824,0 c 4.891,0 9.489,-1.902 12.94,-5.358 3.458,-3.455 5.36,-8.049 5.36,-12.939 l 0,-14.01 c -14.359,-13.252 -32.885,-20.524 -52.534,-20.524 -18.904,0 -36.746,6.764 -50.859,19.081 m -82.426,216.366 c -19.399,0 -37.69,7.048 -51.941,19.926 l 0,17.94 c 0,4.876 1.895,9.456 5.339,12.895 3.442,3.446 8.022,5.342 12.897,5.342 l 51.008,0 3.021,0 12.828,0 c 4.891,0 9.488,-1.903 12.939,-5.359 3.455,-3.453 5.357,-8.047 5.357,-12.939 l 0,-16.985 c 0,-0.394 0.12,-0.749 0.29,-1.076 -14.221,-12.758 -32.429,-19.744 -51.738,-19.744 m -66.199,37.866 0,-0.595 c -18.127,29.837 -14.396,69.326 11.361,95.089 14.627,14.62 34.105,22.673 54.846,22.673 20.736,0 40.211,-8.053 54.839,-22.674 26.001,-26.005 29.577,-66.006 10.858,-95.94 l 0,1.386 c 0,8.7 -3.389,16.875 -9.534,23.019 -6.144,6.148 -14.32,9.535 -23.019,9.535 l -12.828,0 -3.021,0 -51.008,0 c -8.689,0 -16.85,-3.381 -22.976,-9.52 -6.136,-6.125 -9.518,-14.286 -9.518,-22.973 m -1.39,-236.871 c -0.466,7.971 -3.659,15.424 -9.35,21.11 -6.146,6.148 -14.323,9.535 -23.019,9.535 l -12.827,0 -3.022,0 -51.008,0 c -8.689,0 -16.849,-3.381 -22.975,-9.518 -5.642,-5.632 -8.818,-13.013 -9.317,-20.913 -7.592,12.168 -11.727,26.205 -11.727,40.903 0,20.714 8.067,40.189 22.718,54.84 14.624,14.624 34.098,22.677 54.839,22.677 20.736,0 40.212,-8.053 54.838,-22.677 26.011,-26.013 29.584,-66.026 10.85,-95.957 m -117.462,-16.542 0,14.694 c 0,4.876 1.896,9.456 5.34,12.895 3.441,3.446 8.021,5.342 12.896,5.342 l 51.008,0 3.022,0 12.827,0 c 4.892,0 9.485,-1.902 12.936,-5.358 3.458,-3.452 5.361,-8.046 5.361,-12.939 l 0,-14.679 c 0,-0.051 0.025,-0.093 0.028,-0.144 -14.23,-12.737 -32.399,-19.711 -51.644,-19.711 -19.317,0 -37.523,7.067 -51.774,19.9 M 7.665,84.926 c -17.309,17.308 -40.36,26.841 -64.908,26.841 -24.555,-10e-4 -47.612,-9.534 -64.932,-26.84 -0.029,-0.031 -0.053,-0.063 -0.082,-0.093 l -61.009,45.999 0,33.167 c 21.804,1.693 42.062,10.904 57.654,26.491 35.793,35.797 35.793,94.045 0,129.843 -17.313,17.309 -40.365,26.841 -64.912,26.841 -24.555,-0.002 -47.613,-9.533 -64.932,-26.84 -35.793,-35.799 -35.793,-94.047 0,-129.844 15.658,-15.655 36.028,-24.87 57.934,-26.505 l 0,-32.942 -61.323,-46.172 c -0.019,0.018 -0.032,0.037 -0.049,0.054 -17.311,17.31 -40.364,26.844 -64.915,26.844 -24.551,0 -47.609,-9.534 -64.924,-26.844 -17.346,-17.343 -26.897,-40.399 -26.897,-64.919 0,-24.526 9.551,-47.581 26.897,-64.92 17.338,-17.343 40.393,-26.895 64.918,-26.895 24.521,0 47.577,9.552 64.921,26.895 32.345,32.348 35.357,82.978 9.241,118.861 l 59.123,44.513 59.086,-44.555 c -26.084,-35.88 -23.066,-86.483 9.269,-118.819 17.346,-17.343 40.401,-26.895 64.922,-26.895 24.525,0 47.58,9.552 64.918,26.895 17.346,17.339 26.897,40.394 26.897,64.92 0,24.521 -9.551,47.576 -26.897,64.919"
           style="fill:#ffffff;fill-opacity:1;fill-rule:nonzero;stroke:none"
           id="path30" />
      </g>
      <g
         id="g32"
         transform="matrix(1.25,0,0,-1.25,212.32986,107.79058)"
         style="fill:#ffffff;fill-opacity:1">
        <path
           d="M 0,0 C 10.658,0 19.33,-8.672 19.33,-19.331 19.33,-29.989 10.658,-38.66 0,-38.66 c -10.657,0 -19.329,8.671 -19.329,19.329 C -19.329,-8.672 -10.657,0 0,0 m 0,-52.916 c 18.521,0 33.587,15.065 33.587,33.585 0,18.519 -15.066,33.586 -33.587,33.586 -18.521,0 -33.587,-15.067 -33.587,-33.586 0,-18.52 15.066,-33.585 33.587,-33.585"
           style="fill:#ffffff;fill-opacity:1;fill-rule:nonzero;stroke:none"
           id="path34-1" />
      </g>
      <g
         id="g36"
         transform="matrix(1.25,0,0,-1.25,380.28999,454.51408)"
         style="fill:#ffffff;fill-opacity:1">
        <path
           d="m 0,0 c -10.658,0 -19.327,8.671 -19.327,19.329 0,10.659 8.669,19.331 19.327,19.331 10.657,0 19.329,-8.672 19.329,-19.331 C 19.329,8.671 10.657,0 0,0 m 0,52.916 c -18.518,0 -33.584,-15.067 -33.584,-33.587 0,-18.518 15.066,-33.585 33.584,-33.585 18.521,0 33.587,15.067 33.587,33.585 0,18.52 -15.066,33.587 -33.587,33.587"
           style="fill:#ffffff;fill-opacity:1;fill-rule:nonzero;stroke:none"
           id="path38-2" />
      </g>
      <g
         id="g40"
         transform="matrix(1.25,0,0,-1.25,45.943107,454.51408)"
         style="fill:#ffffff;fill-opacity:1">
        <path
           d="m 0,0 c -10.657,0 -19.33,8.671 -19.33,19.329 0,10.659 8.673,19.331 19.33,19.331 10.657,0 19.33,-8.672 19.33,-19.331 C 19.33,8.671 10.657,0 0,0 m 0,52.916 c -18.521,0 -33.587,-15.067 -33.587,-33.587 0,-18.518 15.066,-33.585 33.587,-33.585 18.521,0 33.587,15.067 33.587,33.585 0,18.52 -15.066,33.587 -33.587,33.587"
           style="fill:#ffffff;fill-opacity:1;fill-rule:nonzero;stroke:none"
           id="path42-8" />
      </g>
    </g>
  </g>
</svg>
