<?xml version="1.0" encoding="utf-8"?>
<!-- Generator: Adobe Illustrator 21.1.0, SVG Export Plug-In . SVG Version: 6.00 Build 0)  -->
<svg version="1.1" id="Layer_1" xmlns="http://www.w3.org/2000/svg" xmlns:xlink="http://www.w3.org/1999/xlink" x="0px" y="0px"
	 viewBox="0 0 1418.4 365.1" style="enable-background:new 0 0 1418.4 365.1;" xml:space="preserve">
<style type="text/css">
	.st0{fill:#FFFFFF;}
	.st1{fill:#FF4200;}
</style>
<path class="st1" d="M870.9,101.1c-1.9,0-3.6,0.7-5.1,2.2s-2.2,3.1-2.2,5.1V191v89.5c0,1.9,0.7,3.6,2,5.1c1.3,1.5,3.1,2.2,5.3,2.2
	c1.9,0,3.6-0.7,5.1-2.2c1.4-1.5,2.2-3.1,2.2-5.1V191v-82.7c0-1.9-0.7-3.6-2-5.1C874.8,101.8,873.1,101.1,870.9,101.1z"/>
<g>
	<path class="st0" d="M161,104.7c-2.2,0-3.9,0.7-5.3,2.2c-1.3,1.4-2,3.1-2,5.1v34.8c-5.8-13.5-15.1-24.5-27.9-33
		c-12.8-8.5-26.7-12.7-41.7-12.7c-15.7,0-30,4.1-42.8,12.3S18.4,133,11,147.5C4.3,160.6,0.7,175.1,0.1,191C0,192.7,0,194.3,0,196
		c0,17.9,3.7,34.1,11.1,48.6s17.4,25.9,30.3,34.2c12.8,8.3,27.1,12.5,42.8,12.5c15.5,0,29.5-4.3,42-13c12.6-8.7,21.7-19.4,27.5-32.2
		V356c0,1.9,0.7,3.6,2,5.1c1.3,1.4,3.1,2.2,5.3,2.2c1.9,0,3.6-0.7,5.1-2.2c1.4-1.4,2.2-3.1,2.2-5.1V191v-79c0-1.9-0.7-3.6-2-5.1
		S163.2,104.7,161,104.7z M155.2,196c0,15.5-3,29.4-9.1,41.9c-6,12.4-14.4,22.2-25,29.2s-22.7,10.5-36.2,10.5
		c-13.3,0-25.2-3.6-35.9-10.7c-10.6-7.1-19-16.8-25.2-29.2c-6.2-12.3-9.2-26.2-9.2-41.7c0-1.7,0.1-3.4,0.1-5
		c0.6-13.3,3.6-25.4,9.1-36.5c6.2-12.4,14.6-22.2,25.4-29.2c10.7-7,22.6-10.5,35.7-10.5c13.3,0,25.3,3.5,36.1,10.5
		c10.7,7,19.1,16.7,25.2,29c5.4,11,8.2,23.2,8.8,36.6C155.1,192.7,155.2,194.3,155.2,196z"/>
	<path class="st0" d="M365,106.9c-2.2,0-3.9,0.7-5.3,2.2c-1.3,1.4-2,3.1-2,5.1V191v28.6c0,18.1-5.1,32.1-15.2,41.9
		s-24.3,14.7-42.4,14.7c-17.9,0-31.9-4.9-42-14.7c-10.1-9.8-15.2-23.7-15.2-41.9V191v-76.9c0-1.9-0.7-3.6-2-5.1
		c-1.3-1.4-3.1-2.2-5.3-2.2c-1.9,0-3.6,0.7-5.1,2.2c-1.4,1.4-2.2,3.1-2.2,5.1V191v28.6c0,23,6.4,40.4,19.2,52.4
		c12.8,12,30.3,17.9,52.5,17.9s39.8-6,52.7-17.9c12.9-12,19.4-29.4,19.4-52.4V191v-76.9c0-1.9-0.7-3.6-2-5.1
		C369,107.6,367.2,106.9,365,106.9z"/>
	<path class="st0" d="M580.6,106.9c-2.2,0-3.9,0.7-5.3,2.2c-1.3,1.4-2,3.1-2,5.1v32.2c-5.6-13.8-14.6-24.8-27.2-33
		c-12.6-8.2-26.7-12.3-42.4-12.3c-15.7,0-30,4-42.8,12.1s-22.9,19.3-30.3,33.7c-6.8,13.2-10.4,27.9-10.9,44.1c0,1.4-0.1,2.9-0.1,4.3
		c0,18.1,3.6,34.5,10.9,49.1c7.2,14.6,17.3,26.1,30.1,34.4s27.2,12.5,43.1,12.5c15.2,0,29.1-4.2,41.7-12.5
		c12.6-8.3,21.9-18.7,27.9-31v32.6c0,1.9,0.7,3.6,2,5.1c1.3,1.4,3.1,2.2,5.3,2.2c1.9,0,3.6-0.7,5.1-2.2c1.4-1.4,2.2-3.1,2.2-5.1V191
		v-76.9c0-1.9-0.7-3.6-2-5.1C584.6,107.6,582.8,106.9,580.6,106.9z M574.8,195.3c0,15.5-3,29.5-9.1,42c-6,12.6-14.4,22.4-25.2,29.5
		c-10.7,7.1-22.8,10.7-36.1,10.7c-13.5,0-25.6-3.6-36.2-10.7c-10.6-7.1-19-17-25-29.5c-6-12.6-9.1-26.6-9.1-42
		c0-1.5,0.2-2.9,0.2-4.3c0.5-13.7,3.4-26.2,8.8-37.2c6-12.2,14.4-21.7,25.2-28.6c10.7-6.9,22.8-10.3,36.1-10.3
		c13.3,0,25.3,3.6,36.1,10.7c10.7,7.1,19.1,16.9,25.2,29.2c5.4,11.1,8.3,23.2,8.8,36.3C574.7,192.4,574.8,193.8,574.8,195.3z"/>
	<path class="st0" d="M796.2,19.5c-2.2,0-3.9,0.7-5.3,2.2c-1.3,1.4-2,3.1-2,5.1v119.9c-5.8-13.5-15.1-24.5-27.9-33
		S734.3,101,719.3,101c-15.7,0-30,4.1-42.8,12.3c-12.8,8.2-22.9,19.6-30.3,34.1c-6.7,13.1-10.3,27.6-10.9,43.5
		c-0.1,1.7-0.1,3.3-0.1,5c0,17.9,3.7,34.1,11.1,48.6c7.4,14.5,17.4,25.9,30.3,34.2c12.8,8.3,27.1,12.5,42.8,12.5
		c15.5,0,29.5-4.3,42-13c12.6-8.7,21.7-19.4,27.5-32.2v34.4c0,1.9,0.7,3.6,2,5.1c1.3,1.4,3.1,2.2,5.3,2.2c1.9,0,3.6-0.7,5.1-2.2
		c1.4-1.4,2.2-3.1,2.2-5.1V191V26.8c0-1.9-0.7-3.6-2-5.1C800.2,20.3,798.4,19.5,796.2,19.5z M790.4,196c0,15.5-3,29.4-9.1,41.9
		c-6,12.4-14.4,22.2-25,29.2s-22.7,10.5-36.2,10.5c-13.3,0-25.2-3.6-35.9-10.7c-10.6-7.1-19-16.8-25.2-29.2
		c-6.2-12.3-9.2-26.2-9.2-41.7c0-1.7,0.1-3.4,0.1-5c0.6-13.3,3.6-25.4,9.1-36.5c6.2-12.4,14.6-22.2,25.4-29.2
		c10.7-7,22.6-10.5,35.7-10.5c13.3,0,25.3,3.5,36.1,10.5c10.7,7,19.1,16.7,25.2,29c5.4,11,8.2,23.2,8.8,36.6
		C790.3,192.7,790.4,194.3,790.4,196z"/>
	<path class="st0" d="M1219.1,101.1c-12.8,0-25.5,3.5-38.2,10.5s-22.5,15.9-29.5,26.8v-24.3c0-1.9-0.7-3.6-2-5.1
		c-1.3-1.4-3.1-2.2-5.3-2.2c-1.9,0-3.6,0.7-5.1,2.2c-1.4,1.4-2.2,3.1-2.2,5.1V191v89.5c0,1.9,0.7,3.6,2,5.1c1.3,1.4,3.1,2.2,5.3,2.2
		c1.9,0,3.6-0.7,5.1-2.2c1.4-1.4,2.2-3.1,2.2-5.1V191v-20c0-9.9,3.3-19.2,9.8-27.9s14.9-15.6,25.2-20.7c10.3-5.1,20.7-7.6,31.3-7.6
		c17.4,0,30.4,5.3,39,15.8s12.9,24,12.9,40.4v20v89.5c0,1.9,0.7,3.6,2,5.1c1.3,1.4,3.1,2.2,5.3,2.2c1.9,0,3.6-0.7,5.1-2.2
		c1.4-1.4,2.2-3.1,2.2-5.1V191v-21.4c0-20.3-5.4-36.8-16.3-49.5C1256.8,107.4,1240.6,101.1,1219.1,101.1z"/>
	<path class="st0" d="M1416.2,107.6c-1.4-1.4-3-2.2-4.7-2.2h-39.9v-46c0-1.9-0.7-3.6-2-5.1c-1.3-1.4-3.1-2.2-5.3-2.2
		c-1.9,0-3.6,0.7-5.1,2.2c-1.4,1.4-2.2,3.1-2.2,5.1v46h-29.6c-1.9,0-3.6,0.7-4.9,2s-2,3-2,4.9c0,1.7,0.7,3.3,2.2,4.7
		c1.4,1.4,3,2.2,4.7,2.2h29.7V191v57.9c0,12.8,2.2,22,6.7,27.7s8.8,8.9,12.9,9.8c4.1,0.8,9.2,1.3,15.2,1.3c3.9,0,7.2-0.8,10.1-2.4
		s4.3-3.4,4.3-5.6c0-1.7-0.6-3.2-1.8-4.5c-1.2-1.3-2.7-2-4.3-2c-1.2,0-2.7,0.2-4.5,0.7s-3.2,0.7-4.2,0.7c-5.8,0-10.6-1.7-14.3-5.3
		c-3.8-3.5-5.6-10.6-5.6-21.2V191v-71.8h39.9c1.9,0,3.6-0.7,4.9-2s2-3,2-4.9C1418.4,110.6,1417.7,109,1416.2,107.6z"/>
	<path class="st0" d="M1082.1,191.3c0.7,0,1.3-0.1,1.9-0.3c1.2-0.4,2.2-1,3.2-2c1.4-1.6,2.2-3.3,2.2-5.3
		c-0.5-18.1-4.6-33.3-12.3-45.7c-7.7-12.3-17.7-21.6-29.9-27.7c-12.2-6.2-25.4-9.2-39.7-9.2c-14.3,0-27.7,3.9-40.2,11.6
		c-12.6,7.7-22.6,18.9-30.3,33.5c-6.8,13.1-10.5,28-11.3,44.8c-0.1,2-0.2,4-0.2,6.1c0,18.8,3.9,35.4,11.8,49.6
		c7.8,14.3,18.8,25.2,32.8,33c14,7.7,30.1,11.6,48.2,11.6c13.5,0,26.2-3.4,38.1-10.1c11.8-6.8,21.7-15.5,29.7-26.1
		c1-1.2,1.4-2.7,1.4-4.3c0-1.7-0.6-3.2-1.8-4.5c-1.2-1.3-2.7-2-4.3-2c-2.4,0-4.5,1.1-6.2,3.3c-5.8,8.7-13.8,15.9-24.1,21.6
		c-10.3,5.7-21.2,8.5-32.8,8.5c-16.7,0-30.9-3.6-42.8-10.9c-11.8-7.2-20.8-17.1-26.8-29.5s-9.1-26.1-9.1-41.1v-4.7h142.5V191.3z
		 M955.5,143.6c7.1-9.3,15.3-16.3,24.6-21c9.3-4.7,18.4-7.1,27.4-7.1c10.6,0,20.8,2.3,30.6,6.9c9.8,4.6,18,11.3,24.6,20.1
		s10.6,19.4,11.8,31.7v3.3H941.1C943.6,164.2,948.4,152.9,955.5,143.6z"/>
</g>
<path class="st1" d="M932.9,84.9c-3.3,0-5.9-2.6-5.9-5.9V11.8h-61.5c-3.3,0-5.9-2.6-5.9-5.9s2.6-5.9,5.9-5.9h67.4
	c3.3,0,5.9,2.6,5.9,5.9V79C938.8,82.3,936.2,84.9,932.9,84.9z"/>
</svg>
