<?xml version="1.0" encoding="utf-8" ?>
<svg id="Vrstva_1" data-name="Vrstva 1" xmlns="http://www.w3.org/2000/svg" viewBox="0 0 20 20">
    <defs>
        <style>.cls-1{fill:#fff;}</style>
    </defs>
    <title>sd-quality</title>
    <path class="cls-1" d="M15.54,10a2.47,2.47,0,0,1-2.38,2.28h-1.4l.64-4.58h1.31A1.82,1.82,0,0,1,15.54,10ZM20,2V18H0V2ZM5.25,8.22c.05-.37.42-.56.93-.56a5.08,5.08,0,0,1,2.35.8l1-1.53a5.18,5.18,0,0,0-2.92-.86c-1.85,0-3.2.9-3.4,2.32-.38,2.73,3.8,1.91,3.61,3.28-.06.44-.48.67-1.1.67a4.15,4.15,0,0,1-2.62-1.16l-1,1.51a5,5,0,0,0,3.35,1.23c1.72,0,3.2-.81,3.41-2.35C9.24,8.79,5.06,9.55,5.25,8.22ZM14,6.16H10.67l-1.08,7.7h3.23A4.53,4.53,0,0,0,17.53,10C17.86,7.72,16.4,6.16,14,6.16Z" />
</svg>