<?xml version="1.0" encoding="utf-8"?>
<svg xmlns="http://www.w3.org/2000/svg" width="20" height="20" viewBox="0 0 20 20">
    <defs>
        <style>.cls-1{fill:#fff;}</style>
    </defs>
    <path id="_Cesta_" data-name="&lt;Cesta&gt;" class="cls-1" d="M18.82,8.28s0-.07,0-.11h0c0-.16-.09-.32-.13-.49s-.1-.42-.17-.62A9,9,0,0,0,18,5.73l-.1-.17a9,9,0,0,0-.76-1.15L17,4.3h0c-.18-.23-.36-.46-.56-.67A8.67,8.67,0,0,0,4.5,3.14l-.05,0a.73.73,0,0,1-1-.06l-1-1.06a.37.37,0,0,0-.53,0,.38.38,0,0,0-.09.16h0v.1L1,7.87V8a.77.77,0,0,0,.22.59.73.73,0,0,0,.63.22L4.53,8.4,7.38,8h0a.35.35,0,0,0,.19-.1.39.39,0,0,0,0-.54l-1-1a.78.78,0,0,1,0-1.08l.06-.05,0,0a5.79,5.79,0,0,1,7.68.58,6,6,0,0,1,.47.55h0l0,0c.1.14.19.28.28.42s.19.29.27.45a6,6,0,0,1,.25.57l.1.26a6.17,6.17,0,0,1-1.37,6.26,5.9,5.9,0,0,1-.54.48l0,0,0,0-.06.05,0,0A5.79,5.79,0,0,1,6,14.28a6,6,0,0,1-1.6-3v0A1.46,1.46,0,0,0,2.7,10.09a1.49,1.49,0,0,0-1.13,1.77h0A9,9,0,0,0,4,16.39a8.61,8.61,0,0,0,7.68,2.48,1.38,1.38,0,0,0,.38,0h0a8.71,8.71,0,0,0,4.43-2.45A9.1,9.1,0,0,0,18.82,8.28Z"/>
</svg>