<?xml version="1.0" encoding="UTF-8" standalone="no"?>
<svg
   xmlns:dc="http://purl.org/dc/elements/1.1/"
   xmlns:cc="http://creativecommons.org/ns#"
   xmlns:rdf="http://www.w3.org/1999/02/22-rdf-syntax-ns#"
   xmlns:svg="http://www.w3.org/2000/svg"
   xmlns="http://www.w3.org/2000/svg"
   xmlns:sodipodi="http://sodipodi.sourceforge.net/DTD/sodipodi-0.dtd"
   xmlns:inkscape="http://www.inkscape.org/namespaces/inkscape"
   width="18"
   height="18"
   viewBox="0 0 18 18"
   version="1.1"
   id="svg7"
   sodipodi:docname="search-icon.svg"
   inkscape:version="0.92.3 (2405546, 2018-03-11)">
  <metadata
     id="metadata11">
    <rdf:RDF>
      <cc:Work
         rdf:about="">
        <dc:format>image/svg+xml</dc:format>
        <dc:type
           rdf:resource="http://purl.org/dc/dcmitype/StillImage" />
      </cc:Work>
    </rdf:RDF>
  </metadata>
  <sodipodi:namedview
     pagecolor="#ffffff"
     bordercolor="#666666"
     borderopacity="1"
     objecttolerance="10"
     gridtolerance="10"
     guidetolerance="10"
     inkscape:pageopacity="0"
     inkscape:pageshadow="2"
     inkscape:window-width="715"
     inkscape:window-height="480"
     id="namedview9"
     showgrid="false"
     inkscape:zoom="13.111111"
     inkscape:cx="9"
     inkscape:cy="8.3516949"
     inkscape:window-x="0"
     inkscape:window-y="0"
     inkscape:window-maximized="0"
     inkscape:current-layer="svg7" />
  <defs
     id="defs4">
    <style
       id="style2">.cls-1{fill:#40484C;}</style>
  </defs>
  <path
     id="_Složená_cesta_"
     data-name="&lt;Složená cesta&gt;"
     class="cls-1"
     d="m 10.765367,2 a 5.25,5.25 0 0 0 -5.2499999,5.25 5.16,5.16 0 0 0 0.81,2.8 l -4,4 a 1.17,1.17 0 0 0 0,1.65 1.15,1.15 0 0 0 0.83,0.34 1.18,1.18 0 0 0 0.83,-0.34 l 4,-4 a 5.16,5.16 0 0 0 2.7999999,0.81 5.2550095,5.2550095 0 1 0 -0.02,-10.51 z m 0,8.75 a 3.5,3.5 0 1 1 3.5,-3.5 3.51,3.51 0 0 1 -3.5,3.5 z"
     inkscape:connector-curvature="0"
     style="fill:#40484c" />
</svg>
