<?xml version="1.0" encoding="utf-8"?>
<svg xmlns="http://www.w3.org/2000/svg" width="20" height="20" viewBox="0 0 20 20">
    <defs>
        <style>.cls-1{fill:#fff;}</style>
    </defs>
    <path class="cls-1" d="M13.31,3.8a.67.67,0,1,0-.95,1,7.42,7.42,0,0,1,0,10.5.67.67,0,1,0,1,1,8.77,8.77,0,0,0,0-12.4Z"/>
    <path class="cls-1" d="M11.19,5.93a.67.67,0,1,0-.95.95h0a4.42,4.42,0,0,1,0,6.24.67.67,0,1,0,1,.95,5.76,5.76,0,0,0,0-8.14Z"/>
    <path class="cls-1" d="M8.24,5a.55.55,0,0,0-.85-.4l0,0L4,7l-.16.12a2.08,2.08,0,0,1-1.16.35H2.32a1.23,1.23,0,0,0-1.14.77,1.14,1.14,0,0,0-.06.2l0,.17A10.19,10.19,0,0,0,1,10a10.36,10.36,0,0,0,.09,1.35l0,.16a1.23,1.23,0,0,0,1.21,1h.46a2.07,2.07,0,0,1,1.1.35l.18.13,3.29,2.44h0l0,0a.55.55,0,0,0,.85-.39V15q.16-2.16.18-4.36V9.37Q8.4,7.16,8.24,5Z"/>
</svg>