<?xml version="1.0" encoding="utf-8"?>
<svg xmlns="http://www.w3.org/2000/svg" width="20" height="20" viewBox="0 0 20 20">
    <defs>
        <style>.cls-1{fill:#fff;}</style>
    </defs>
    <path class="cls-1" d="M8,10.57a.48.48,0,0,0-.27.08h0l0,0L5,12.8l-.06,0H5a.48.48,0,0,0,0,.7l.08.06,2.32,1.79h0l0,0a.54.54,0,0,0,.31.09.55.55,0,0,0,.54-.48s0,0,0-.06c.1-1.37.16-2.51.18-3.9h0s0-.06,0-.08A.48.48,0,0,0,8,10.57Z"/>
    <path class="cls-1" d="M1.06,10.44v.06a.48.48,0,0,0,.47.41.47.47,0,0,0,.24-.06l.1-.08h0L7.81,6.24,8,6.12H8a1.07,1.07,0,0,0,.35-.79s0,0,0-.06c0-.18,0-.11,0-.29V5a.55.55,0,0,0-.78-.44l-.07,0,0,0-1.22.9L4.08,7l-.16.12a2.07,2.07,0,0,1-1.16.35H2.35a1.23,1.23,0,0,0-1.14.77,1.15,1.15,0,0,0-.06.2l0,.17A10.06,10.06,0,0,0,1,10a4.23,4.23,0,0,0,0,.43Z"/>
    <path class="cls-1" d="M10.32,6.49a.67.67,0,0,0-.9-.15l-.07.05-8,6.16-.08.06a.66.66,0,0,0,.84,1h0l8.08-6.18.09-.07A.67.67,0,0,0,10.32,6.49Z"/>
</svg>