<?xml version="1.0" encoding="UTF-8"?>
<svg id="do" xmlns="http://www.w3.org/2000/svg" viewBox="0 0 20 20">
  <defs>
    <style>
      .cls-1 {
        fill: #ff4200;
        stroke-width: 0px;
      }
    </style>
  </defs>
  <path class="cls-1" d="M10,2c-1.58,0-3.13.47-4.45,1.35-1.32.88-2.34,2.13-2.95,3.59-.61,1.46-.76,3.07-.45,4.62s1.07,2.98,2.19,4.1c1.12,1.12,2.54,1.88,4.1,2.19s3.16.15,4.62-.45c1.46-.61,2.71-1.63,3.59-2.95.88-1.32,1.35-2.86,1.35-4.45,0-2.12-.84-4.16-2.34-5.66s-3.53-2.34-5.66-2.34h0ZM10.12,15.56c0,.08,0,.15-.04.22-.03.07-.07.14-.12.19-.05.06-.12.1-.19.13-.07.03-.15.05-.22.05s-.15-.01-.22-.05-.13-.07-.19-.13c-.05-.06-.09-.12-.12-.19-.03-.07-.04-.15-.04-.22v-6.12c0-.08,0-.15.04-.22.03-.07.07-.14.12-.19.05-.06.12-.1.19-.13.07-.03.15-.05.22-.05s.15.02.22.05.13.07.19.13c.05.06.09.12.12.19.03.07.04.15.04.22v6.12ZM13.38,8.56c0,.08,0,.15-.04.22-.03.07-.07.14-.12.19s-.12.1-.19.13c-.07.03-.15.05-.22.05s-.15-.02-.22-.05-.13-.07-.19-.13c-.05-.06-.09-.12-.12-.19-.03-.07-.04-.15-.04-.22v-2.69h-2.69c-.15,0-.28-.07-.38-.17-.1-.11-.16-.24-.16-.39s.06-.28.16-.39.24-.17.38-.17h3.25c.07,0,.15.01.22.04.07.03.13.07.18.12.05.05.09.11.12.18s.04.14.04.22v3.25h0Z"/>
</svg>